# WaveFront *.obj file (generated by Cinema 4D)

mtllib ./map_large.mtl

v 1000 0 -600
v 1000 0 -300
v 800 0 -300
v 800 0 0.00000000000005
v 1100 0 0.00000000000005
v 1100 0 100
v 1300 0 100
v 1300 0 -100
v 1200 0 -100
v 1200 0 -300
v 1500 0 -300
v 1500 0 200
v 1800 0 200
v 1800 0 100
v 1700 0 100
v 1700 0 -200
v 2000 0 -200
v 2000 0 500
v 1700 0 500
v 1700 0 700
v 1900 0 700
v 1900 0 1100
v 1700 0 1100
v 1700 0 900
v 1500 0 900
v 1500 0 500
v 1300 0 500
v 1300 0 1100
v 1500 0 1100
v 1500 0 1300
v 1100 0 1300
v 1100 0 1100
v 900 0 1100
v 900 0 1000
v 1100 0 1000
v 1100 0 700
v 1000 0 700
v 1000 0 600
v 1100 0 600
v 1100 0 400
v 900 0 400
v 900 0 900
v 700 0 900
v 700 0 800
v 400 0 800
v 400 0 900
v 200 0 900
v 200 0 500
v 500 0 500
v 500 0 600
v 700 0 600
v 700 0 300
v -0.00000000000011 0 300
v 0 0 -100
v 100 0 -100
v 100 0 0
v 300 0 0
v 300 0 -200
v 400 0 -200
v 400 0 100
v 500 0 100
v 500 0 0.00000000000004
v 600 0 0.00000000000004
v 600 0 -300
v 400 0 -300
v 400 0 -600
v 600 0 -600
v 600 0 -800
v 0 0 -800
v -0.00000000000006 0 -1200
v 200 0 -1200
v 200 0 -1000
v 600 0 -1000
v 600 0 -1300
v 300 0 -1300
v 300 0 -1500
v 800 0 -1500
v 800 0 -1200
v 1000 0 -1200
v 1000 0 -1400
v 900 0 -1400
v 900 0 -1500
v 1100 0 -1500
v 1100 0 -1100
v 1300 0 -1100
v 1300 0 -1300
v 1600 0 -1300
v 1600 0 -1100
v 1500 0 -1100
v 1500 0 -900
v 1700 0 -900
v 1700 0 -1400
v 2100 0 -1400
v 2100 0 -1200
v 1900 0 -1200
v 1900 0 -900
v 2200 0 -900
v 2200 0 -1100
v 2400 0 -1100
v 2400 0 -700
v 2600 0 -700
v 2600 0 -900
v 2700 0 -900
v 2700 0 -600
v 2600 0 -600
v 2600 0 -400
v 2800 0 -400
v 2800 0 -200
v 2500 0 -200
v 2500 0 -300
v 2200 0 -300
v 2200 0 -400
v 2300 0 -400
v 2300 0 -500
v 2000 0 -500
v 2000 0 -700
v 1800 0 -700
v 1800 0 -500
v 1900 0 -500
v 1900 0 -300
v 1700 0 -300
v 1700 0 -400
v 1600 0 -400
v 1600 0 -600
v 1400 0 -600
v 1400 0 -400
v 1300 0 -400
v 1300 0 -600
v 1000 126.18000030517578 -600
v 1000 126.18000030517578 -300
v 800 126.18000030517578 -300
v 800 126.18000030517578 0.00000000000005
v 1100 126.18000030517578 0.00000000000005
v 1100 126.18000030517578 100
v 1300 126.18000030517578 100
v 1300 126.18000030517578 -100
v 1200 126.18000030517578 -100
v 1200 126.18000030517578 -300
v 1500 126.18000030517578 -300
v 1500 126.18000030517578 200
v 1800 126.18000030517578 200
v 1800 126.18000030517578 100
v 1700 126.18000030517578 100
v 1700 126.18000030517578 -200
v 2000 126.18000030517578 -200
v 2000 126.18000030517578 500
v 1700 126.18000030517578 500
v 1700 126.18000030517578 700
v 1900 126.18000030517578 700
v 1900 126.18000030517578 1100
v 1700 126.18000030517578 1100
v 1700 126.18000030517578 900
v 1500 126.18000030517578 900
v 1500 126.18000030517578 500
v 1300 126.18000030517578 500
v 1300 126.18000030517578 1100
v 1500 126.18000030517578 1100
v 1500 126.18000030517578 1300
v 1100 126.18000030517578 1300
v 1100 126.18000030517578 1100
v 900 126.18000030517578 1100
v 900 126.18000030517578 1000
v 1100 126.18000030517578 1000
v 1100 126.18000030517578 700
v 1000 126.18000030517578 700
v 1000 126.18000030517578 600
v 1100 126.18000030517578 600
v 1100 126.18000030517578 400
v 900 126.18000030517578 400
v 900 126.18000030517578 900
v 700 126.18000030517578 900
v 700 126.18000030517578 800
v 400 126.18000030517578 800
v 400 126.18000030517578 900
v 200 126.18000030517578 900
v 200 126.18000030517578 500
v 500 126.18000030517578 500
v 500 126.18000030517578 600
v 700 126.18000030517578 600
v 700 126.18000030517578 300
v -0.00000000000011 126.18000030517578 300
v 0 126.18000030517578 -100
v 100 126.18000030517578 -100
v 100 126.18000030517578 0
v 300 126.18000030517578 0
v 300 126.18000030517578 -200
v 400 126.18000030517578 -200
v 400 126.18000030517578 100
v 500 126.18000030517578 100
v 500 126.18000030517578 0.00000000000004
v 600 126.18000030517578 0.00000000000004
v 600 126.18000030517578 -300
v 400 126.18000030517578 -300
v 400 126.18000030517578 -600
v 600 126.18000030517578 -600
v 600 126.18000030517578 -800
v 0 126.18000030517578 -800
v -0.00000000000006 126.18000030517578 -1200
v 200 126.18000030517578 -1200
v 200 126.18000030517578 -1000
v 600 126.18000030517578 -1000
v 600 126.18000030517578 -1300
v 300 126.18000030517578 -1300
v 300 126.18000030517578 -1500
v 800 126.18000030517578 -1500
v 800 126.18000030517578 -1200
v 1000 126.18000030517578 -1200
v 1000 126.18000030517578 -1400
v 900 126.18000030517578 -1400
v 900 126.18000030517578 -1500
v 1100 126.18000030517578 -1500
v 1100 126.18000030517578 -1100
v 1300 126.18000030517578 -1100
v 1300 126.18000030517578 -1300
v 1600 126.18000030517578 -1300
v 1600 126.18000030517578 -1100
v 1500 126.18000030517578 -1100
v 1500 126.18000030517578 -900
v 1700 126.18000030517578 -900
v 1700 126.18000030517578 -1400
v 2100 126.18000030517578 -1400
v 2100 126.18000030517578 -1200
v 1900 126.18000030517578 -1200
v 1900 126.18000030517578 -900
v 2200 126.18000030517578 -900
v 2200 126.18000030517578 -1100
v 2400 126.18000030517578 -1100
v 2400 126.18000030517578 -700
v 2600 126.18000030517578 -700
v 2600 126.18000030517578 -900
v 2700 126.18000030517578 -900
v 2700 126.18000030517578 -600
v 2600 126.18000030517578 -600
v 2600 126.18000030517578 -400
v 2800 126.18000030517578 -400
v 2800 126.18000030517578 -200
v 2500 126.18000030517578 -200
v 2500 126.18000030517578 -300
v 2200 126.18000030517578 -300
v 2200 126.18000030517578 -400
v 2300 126.18000030517578 -400
v 2300 126.18000030517578 -500
v 2000 126.18000030517578 -500
v 2000 126.18000030517578 -700
v 1800 126.18000030517578 -700
v 1800 126.18000030517578 -500
v 1900 126.18000030517578 -500
v 1900 126.18000030517578 -300
v 1700 126.18000030517578 -300
v 1700 126.18000030517578 -400
v 1600 126.18000030517578 -400
v 1600 126.18000030517578 -600
v 1400 126.18000030517578 -600
v 1400 126.18000030517578 -400
v 1300 126.18000030517578 -400
v 1300 126.18000030517578 -600
# 256 vertices

vn 1 0 0
vn 0 0 1
vn 0 0 -1
vn -1 0 0
vn -1 0 0
vn -1 0 0
# 6 normals

vt 0 1 0
vt 0.00993377529085 1 0
vt 0.00993377529085 0 0
vt 0 0 0
vt 0.016556289047 1 0
vt 0.016556289047 0 0
vt 0.02649006620049 1 0
vt 0.02649006620049 0 0
vt 0.0364238396287 1 0
vt 0.0364238396287 0 0
vt 0.03973510116339 1 0
vt 0.03973510116339 0 0
vt 0.04635761678219 1 0
vt 0.04635761678219 0 0
vt 0.05298013240099 1 0
vt 0.05298013240099 0 0
vt 0.0562913864851 1 0
vt 0.0562913864851 0 0
vt 0.06291390955448 1 0
vt 0.06291390955448 0 0
vt 0.07284767925739 1 0
vt 0.07284767925739 0 0
vt 0.08940397202969 1 0
vt 0.08940397202969 0 0
vt 0.0993377417326 1 0
vt 0.0993377417326 0 0
vt 0.10264900326729 1 0
vt 0.10264900326729 0 0
vt 0.10596026480198 1 0
vt 0.10596026480198 0 0
vt 0.11589403450489 1 0
vt 0.11589403450489 0 0
vt 0.12582781910896 1 0
vt 0.12582781910896 0 0
vt 0.14900660514832 1 0
vt 0.14900660514832 0 0
vt 0.15894040465355 1 0
vt 0.15894040465355 0 0
vt 0.16556289792061 1 0
vt 0.16556289792061 0 0
vt 0.17218542098999 1 0
vt 0.17218542098999 0 0
vt 0.18543046712875 1 0
vt 0.18543046712875 0 0
vt 0.19205296039581 1 0
vt 0.19205296039581 0 0
vt 0.19867548346519 1 0
vt 0.19867548346519 0 0
vt 0.20529800653458 1 0
vt 0.20529800653458 0 0
vt 0.21854305267334 1 0
vt 0.21854305267334 0 0
vt 0.2251655459404 1 0
vt 0.2251655459404 0 0
vt 0.24503311514854 1 0
vt 0.24503311514854 0 0
vt 0.25165563821793 1 0
vt 0.25165563821793 0 0
vt 0.25827813148499 1 0
vt 0.25827813148499 0 0
vt 0.27152317762375 1 0
vt 0.27152317762375 0 0
vt 0.27814567089081 1 0
vt 0.27814567089081 0 0
vt 0.28476822376251 1 0
vt 0.28476822376251 0 0
vt 0.28807944059372 1 0
vt 0.28807944059372 0 0
vt 0.29470199346542 1 0
vt 0.29470199346542 0 0
vt 0.30463576316833 1 0
vt 0.30463576316833 0 0
vt 0.30794697999954 1 0
vt 0.30794697999954 0 0
vt 0.31125825643539 1 0
vt 0.31125825643539 0 0
vt 0.31456953287125 1 0
vt 0.31456953287125 0 0
vt 0.32119202613831 1 0
vt 0.32119202613831 0 0
vt 0.32781457901001 1 0
vt 0.32781457901001 0 0
vt 0.34437084197998 1 0
vt 0.34437084197998 0 0
vt 0.35099333524704 1 0
vt 0.35099333524704 0 0
vt 0.35430461168289 1 0
vt 0.35430461168289 0 0
vt 0.3642383813858 1 0
vt 0.3642383813858 0 0
vt 0.36754965782166 1 0
vt 0.36754965782166 0 0
vt 0.37417215108871 1 0
vt 0.37417215108871 0 0
vt 0.38741719722748 1 0
vt 0.38741719722748 0 0
vt 0.39735096693039 1 0
vt 0.39735096693039 0 0
vt 0.40066224336624 1 0
vt 0.40066224336624 0 0
vt 0.4072847366333 1 0
vt 0.4072847366333 0 0
vt 0.41721850633621 1 0
vt 0.41721850633621 0 0
vt 0.44039732217789 1 0
vt 0.44039732217789 0 0
vt 0.45364236831665 1 0
vt 0.45364236831665 0 0
vt 0.4569536447525 1 0
vt 0.4569536447525 0 0
vt 0.46026486158371 1 0
vt 0.46026486158371 0 0
vt 0.46688741445541 1 0
vt 0.46688741445541 0 0
vt 0.47350990772247 1 0
vt 0.47350990772247 0 0
vt 0.47682118415833 1 0
vt 0.47682118415833 0 0
vt 0.48675495386124 1 0
vt 0.48675495386124 0 0
vt 0.49006623029709 1 0
vt 0.49006623029709 0 0
vt 0.4933774471283 1 0
vt 0.4933774471283 0 0
vt 0.49668872356415 1 0
vt 0.49668872356415 0 0
vt 0.50662243366241 1 0
vt 0.50662243366241 0 0
vt 0.51324498653412 1 0
vt 0.51324498653412 0 0
vt 0.52317881584167 1 0
vt 0.52317881584167 0 0
vt 0.52980124950409 1 0
vt 0.52980124950409 0 0
vt 0.53642380237579 1 0
vt 0.53642380237579 0 0
vt 0.55629134178162 1 0
vt 0.55629134178162 0 0
vt 0.56953644752502 1 0
vt 0.56953644752502 0 0
vt 0.57615888118744 1 0
vt 0.57615888118744 0 0
vt 0.58278143405914 1 0
vt 0.58278143405914 0 0
vt 0.59602642059326 1 0
vt 0.59602642059326 0 0
vt 0.60596024990082 1 0
vt 0.60596024990082 0 0
vt 0.61589395999908 1 0
vt 0.61589395999908 0 0
vt 0.62251651287079 1 0
vt 0.62251651287079 0 0
vt 0.63907277584076 1 0
vt 0.63907277584076 0 0
vt 0.64900660514832 1 0
vt 0.64900660514832 0 0
vt 0.65562915802002 1 0
vt 0.65562915802002 0 0
vt 0.66225159168243 1 0
vt 0.66225159168243 0 0
vt 0.66556286811829 1 0
vt 0.66556286811829 0 0
vt 0.66887414455414 1 0
vt 0.66887414455414 0 0
vt 0.67549669742584 1 0
vt 0.67549669742584 0 0
vt 0.68874168395996 1 0
vt 0.68874168395996 0 0
vt 0.69536423683166 1 0
vt 0.69536423683166 0 0
vt 0.70198667049408 1 0
vt 0.70198667049408 0 0
vt 0.71192049980164 1 0
vt 0.71192049980164 0 0
vt 0.71854305267334 1 0
vt 0.71854305267334 0 0
vt 0.72185432910919 1 0
vt 0.72185432910919 0 0
vt 0.72847676277161 1 0
vt 0.72847676277161 0 0
vt 0.73509931564331 1 0
vt 0.73509931564331 0 0
vt 0.75165557861328 1 0
vt 0.75165557861328 0 0
vt 0.76490068435669 1 0
vt 0.76490068435669 0 0
vt 0.7715231180191 1 0
vt 0.7715231180191 0 0
vt 0.77814567089081 1 0
vt 0.77814567089081 0 0
vt 0.78807938098907 1 0
vt 0.78807938098907 0 0
vt 0.79801321029663 1 0
vt 0.79801321029663 0 0
vt 0.80463576316834 1 0
vt 0.80463576316834 0 0
vt 0.81125819683075 1 0
vt 0.81125819683075 0 0
vt 0.82450330257416 1 0
vt 0.82450330257416 0 0
vt 0.83112585544586 1 0
vt 0.83112585544586 0 0
vt 0.83774828910828 1 0
vt 0.83774828910828 0 0
vt 0.84105956554413 1 0
vt 0.84105956554413 0 0
vt 0.85099339485168 1 0
vt 0.85099339485168 0 0
vt 0.85430455207825 1 0
vt 0.85430455207825 0 0
vt 0.86092710494995 1 0
vt 0.86092710494995 0 0
vt 0.86754965782166 1 0
vt 0.86754965782166 0 0
vt 0.87417221069336 1 0
vt 0.87417221069336 0 0
vt 0.88410592079163 1 0
vt 0.88410592079163 0 0
vt 0.88741719722748 1 0
vt 0.88741719722748 0 0
vt 0.89735090732574 1 0
vt 0.89735090732574 0 0
vt 0.9006621837616 1 0
vt 0.9006621837616 0 0
vt 0.90397346019745 1 0
vt 0.90397346019745 0 0
vt 0.9072847366333 1 0
vt 0.9072847366333 0 0
vt 0.91721856594086 1 0
vt 0.91721856594086 0 0
vt 0.92384099960327 1 0
vt 0.92384099960327 0 0
vt 0.93046355247498 1 0
vt 0.93046355247498 0 0
vt 0.93708610534668 1 0
vt 0.93708610534668 0 0
vt 0.94039726257324 1 0
vt 0.94039726257324 0 0
vt 0.94701981544495 1 0
vt 0.94701981544495 0 0
vt 0.95364236831665 1 0
vt 0.95364236831665 0 0
vt 0.9569536447525 1 0
vt 0.9569536447525 0 0
vt 0.96026492118835 1 0
vt 0.96026492118835 0 0
vt 0.96688735485077 1 0
vt 0.96688735485077 0 0
vt 0.97350990772247 1 0
vt 0.97350990772247 0 0
vt 0.98013246059418 1 0
vt 0.98013246059418 0 0
vt 0.98344373703003 1 0
vt 0.98344373703003 0 0
vt 0.99006617069244 1 0
vt 0.99006617069244 0 0
vt 1 1 0
vt 1 0 0
# 258 texture coordinates

o Extrude
usemtl Mat
f 129/4/1 130/3/1 2/2/1 1/1/1
f 130/3/2 131/6/2 3/5/2 2/2/2
f 131/6/1 132/8/1 4/7/1 3/5/1
f 132/8/3 133/10/3 5/9/3 4/7/3
f 133/10/1 134/12/1 6/11/1 5/9/1
f 134/12/3 135/14/3 7/13/3 6/11/3
f 135/14/4 136/16/4 8/15/4 7/13/4
f 136/16/2 137/18/2 9/17/2 8/15/2
f 137/18/4 138/20/4 10/19/4 9/17/4
f 138/20/3 139/22/3 11/21/3 10/19/3
f 139/22/1 140/24/1 12/23/1 11/21/1
f 140/24/3 141/26/3 13/25/3 12/23/3
f 141/26/4 142/28/4 14/27/4 13/25/4
f 142/28/2 143/30/2 15/29/2 14/27/2
f 143/30/4 144/32/4 16/31/4 15/29/4
f 144/32/3 145/34/3 17/33/3 16/31/3
f 145/34/1 146/36/1 18/35/1 17/33/1
f 146/36/2 147/38/2 19/37/2 18/35/2
f 147/38/1 148/40/1 20/39/1 19/37/1
f 148/40/3 149/42/3 21/41/3 20/39/3
f 149/42/1 150/44/1 22/43/1 21/41/1
f 150/44/2 151/46/2 23/45/2 22/43/2
f 151/46/4 152/48/4 24/47/4 23/45/4
f 152/48/2 153/50/2 25/49/2 24/47/2
f 153/50/4 154/52/4 26/51/4 25/49/4
f 154/52/2 155/54/2 27/53/2 26/51/2
f 155/54/1 156/56/1 28/55/1 27/53/1
f 156/56/3 157/58/3 29/57/3 28/55/3
f 157/58/1 158/60/1 30/59/1 29/57/1
f 158/60/2 159/62/2 31/61/2 30/59/2
f 159/62/4 160/64/4 32/63/4 31/61/4
f 160/64/2 161/66/2 33/65/2 32/63/2
f 161/66/4 162/68/4 34/67/4 33/65/4
f 162/68/3 163/70/3 35/69/3 34/67/3
f 163/70/4 164/72/4 36/71/4 35/69/4
f 164/72/2 165/74/2 37/73/2 36/71/2
f 165/74/4 166/76/4 38/75/4 37/73/4
f 166/76/3 167/78/3 39/77/3 38/75/3
f 167/78/4 168/80/4 40/79/4 39/77/4
f 168/80/2 169/82/2 41/81/2 40/79/2
f 169/82/1 170/84/1 42/83/1 41/81/1
f 170/84/2 171/86/2 43/85/2 42/83/2
f 171/86/4 172/88/4 44/87/4 43/85/4
f 172/88/2 173/90/2 45/89/2 44/87/2
f 173/90/1 174/92/1 46/91/1 45/89/1
f 174/92/2 175/94/2 47/93/2 46/91/2
f 175/94/4 176/96/4 48/95/4 47/93/4
f 176/96/3 177/98/3 49/97/3 48/95/3
f 177/98/1 178/100/1 50/99/1 49/97/1
f 178/100/3 179/102/3 51/101/3 50/99/3
f 179/102/4 180/104/4 52/103/4 51/101/4
f 180/104/2 181/106/2 53/105/2 52/103/2
f 181/106/5 182/108/5 54/107/5 53/105/5
f 182/108/3 183/110/3 55/109/3 54/107/3
f 183/110/1 184/112/1 56/111/1 55/109/1
f 184/112/3 185/114/3 57/113/3 56/111/3
f 185/114/4 186/116/4 58/115/4 57/113/4
f 186/116/3 187/118/3 59/117/3 58/115/3
f 187/118/1 188/120/1 60/119/1 59/117/1
f 188/120/3 189/122/3 61/121/3 60/119/3
f 189/122/4 190/124/4 62/123/4 61/121/4
f 190/124/3 191/126/3 63/125/3 62/123/3
f 191/126/4 192/128/4 64/127/4 63/125/4
f 192/128/2 193/130/2 65/129/2 64/127/2
f 193/130/4 194/132/4 66/131/4 65/129/4
f 194/132/3 195/134/3 67/133/3 66/131/3
f 195/134/4 196/136/4 68/135/4 67/133/4
f 196/136/2 197/138/2 69/137/2 68/135/2
f 197/138/6 198/140/6 70/139/6 69/137/6
f 198/140/3 199/142/3 71/141/3 70/139/3
f 199/142/1 200/144/1 72/143/1 71/141/1
f 200/144/3 201/146/3 73/145/3 72/143/3
f 201/146/4 202/148/4 74/147/4 73/145/4
f 202/148/2 203/150/2 75/149/2 74/147/2
f 203/150/4 204/152/4 76/151/4 75/149/4
f 204/152/3 205/154/3 77/153/3 76/151/3
f 205/154/1 206/156/1 78/155/1 77/153/1
f 206/156/3 207/158/3 79/157/3 78/155/3
f 207/158/4 208/160/4 80/159/4 79/157/4
f 208/160/2 209/162/2 81/161/2 80/159/2
f 209/162/4 210/164/4 82/163/4 81/161/4
f 210/164/3 211/166/3 83/165/3 82/163/3
f 211/166/1 212/168/1 84/167/1 83/165/1
f 212/168/3 213/170/3 85/169/3 84/167/3
f 213/170/4 214/172/4 86/171/4 85/169/4
f 214/172/3 215/174/3 87/173/3 86/171/3
f 215/174/1 216/176/1 88/175/1 87/173/1
f 216/176/2 217/178/2 89/177/2 88/175/2
f 217/178/1 218/180/1 90/179/1 89/177/1
f 218/180/3 219/182/3 91/181/3 90/179/3
f 219/182/4 220/184/4 92/183/4 91/181/4
f 220/184/3 221/186/3 93/185/3 92/183/3
f 221/186/1 222/188/1 94/187/1 93/185/1
f 222/188/2 223/190/2 95/189/2 94/187/2
f 223/190/1 224/192/1 96/191/1 95/189/1
f 224/192/3 225/194/3 97/193/3 96/191/3
f 225/194/4 226/196/4 98/195/4 97/193/4
f 226/196/3 227/198/3 99/197/3 98/195/3
f 227/198/1 228/200/1 100/199/1 99/197/1
f 228/200/3 229/202/3 101/201/3 100/199/3
f 229/202/4 230/204/4 102/203/4 101/201/4
f 230/204/3 231/206/3 103/205/3 102/203/3
f 231/206/1 232/208/1 104/207/1 103/205/1
f 232/208/2 233/210/2 105/209/2 104/207/2
f 233/210/1 234/212/1 106/211/1 105/209/1
f 234/212/3 235/214/3 107/213/3 106/211/3
f 235/214/1 236/216/1 108/215/1 107/213/1
f 236/216/2 237/218/2 109/217/2 108/215/2
f 237/218/4 238/220/4 110/219/4 109/217/4
f 238/220/2 239/222/2 111/221/2 110/219/2
f 239/222/4 240/224/4 112/223/4 111/221/4
f 240/224/3 241/226/3 113/225/3 112/223/3
f 241/226/4 242/228/4 114/227/4 113/225/4
f 242/228/2 243/230/2 115/229/2 114/227/2
f 243/230/4 244/232/4 116/231/4 115/229/4
f 244/232/2 245/234/2 117/233/2 116/231/2
f 245/234/1 246/236/1 118/235/1 117/233/1
f 246/236/3 247/238/3 119/237/3 118/235/3
f 247/238/1 248/240/1 120/239/1 119/237/1
f 248/240/2 249/242/2 121/241/2 120/239/2
f 249/242/4 250/244/4 122/243/4 121/241/4
f 250/244/2 251/246/2 123/245/2 122/243/2
f 251/246/4 252/248/4 124/247/4 123/245/4
f 252/248/2 253/250/2 125/249/2 124/247/2
f 253/250/1 254/252/1 126/251/1 125/249/1
f 254/252/2 255/254/2 127/253/2 126/251/2
f 255/254/4 256/256/4 128/255/4 127/253/4
f 256/256/2 129/258/2 1/257/2 128/255/2

v 800 -0.00000000000005 100
v 800 -0.00000000000005 200
v 1000 -0.00000000000006 200
v 1000 -0.00000000000006 100
v 100 -0.00000000000001 100
v 100 -0.00000000000001 200
v 300 -0.00000000000002 200
v 300 -0.00000000000002 100
v 300 -0.00000000000002 600
v 300 -0.00000000000002 700
v 400 -0.00000000000002 700
v 400 -0.00000000000002 600
v 500 -0.00000000000003 -500
v 500 -0.00000000000003 -400
v 700 -0.00000000000004 -400
v 700 -0.00000000000004 -500
v 800 -0.00000000000005 -500
v 800 -0.00000000000005 -400
v 900 -0.00000000000006 -400
v 900 -0.00000000000006 -500
v 600 -0.00000000000004 100
v 600 -0.00000000000004 200
v 700 -0.00000000000004 200
v 700 -0.00000000000004 100
v 746.83087158203125 -0.00000000000005 -750
v 746.83087158203125 -0.00000000000005 -650
v 946.83087158203125 -0.00000000000006 -650
v 946.83087158203125 -0.00000000000006 -750
v 1050 -0.00000000000006 -950
v 1050 -0.00000000000006 -850
v 1150 -0.00000000000007 -850
v 1150 -0.00000000000007 -950
v 1292.4512939453125 -0.00000000000008 -950
v 1292.4512939453125 -0.00000000000008 -850
v 1392.4512939453125 -0.00000000000009 -850
v 1392.4512939453125 -0.00000000000009 -950
v 2150 -0.00000000000013 -754.0760498046875
v 2150 -0.00000000000013 -654.0760498046875
v 2250 -0.00000000000014 -654.0760498046875
v 2250 -0.00000000000014 -754.0760498046875
v 1242.3062744140625 -0.00000000000008 250
v 1242.3062744140625 -0.00000000000008 350
v 1442.3062744140625 -0.00000000000009 350
v 1442.3062744140625 -0.00000000000009 250
v 1758.8843994140625 -0.00000000000011 293.35089111328125
v 1758.8843994140625 -0.00000000000011 393.35089111328125
v 1858.8843994140625 -0.00000000000011 393.35089111328125
v 1858.8843994140625 -0.00000000000011 293.35089111328125
v 1800.9202880859375 -0.00000000000011 -98.99250793457031
v 1800.9202880859375 -0.00000000000011 1.00748944282532
v 1900.9202880859375 -0.00000000000012 1.00748944282532
v 1900.9202880859375 -0.00000000000012 -98.99250793457031
v 746.83087158203125 -0.00000000000005 -1105.636474609375
v 746.83087158203125 -0.00000000000005 -1005.636474609375
v 946.83087158203125 -0.00000000000006 -1005.636474609375
v 946.83087158203125 -0.00000000000006 -1105.636474609375
v 800 128 100
v 800 128 200
v 1000 128 200
v 1000 128 100
v 100 128 100
v 100 128 200
v 300 128 200
v 300 128 100
v 300 128 600
v 300 128 700
v 400 128 700
v 400 128 600
v 500 128 -500
v 500 128 -400
v 700 128 -400
v 700 128 -500
v 800 128 -500
v 800 128 -400
v 900 128 -400
v 900 128 -500
v 600 128 100
v 600 128 200
v 700 128 200
v 700 128 100
v 746.83087158203125 128 -750
v 746.83087158203125 128 -650
v 946.83087158203125 128 -650
v 946.83087158203125 128 -750
v 1050 128 -950
v 1050 128 -850
v 1150 128 -850
v 1150 128 -950
v 1292.4512939453125 128 -950
v 1292.4512939453125 128 -850
v 1392.4512939453125 128 -850
v 1392.4512939453125 128 -950
v 2150 128 -754.0760498046875
v 2150 128 -654.0760498046875
v 2250 128 -654.0760498046875
v 2250 128 -754.0760498046875
v 1242.3062744140625 128 250
v 1242.3062744140625 128 350
v 1442.3062744140625 128 350
v 1442.3062744140625 128 250
v 1758.8843994140625 128 293.35089111328125
v 1758.8843994140625 128 393.35089111328125
v 1858.8843994140625 128 393.35089111328125
v 1858.8843994140625 128 293.35089111328125
v 1800.9202880859375 128 -98.99250793457031
v 1800.9202880859375 128 1.00748944282532
v 1900.9202880859375 128 1.00748944282532
v 1900.9202880859375 128 -98.99250793457031
v 746.83087158203125 128 -1105.636474609375
v 746.83087158203125 128 -1005.636474609375
v 946.83087158203125 128 -1005.636474609375
v 946.83087158203125 128 -1105.636474609375
# 112 vertices

# 0 normal

vt 0.16666665673256 0 0
vt 0.16666665673256 1 0
vt 0.5 0 0
vt 0.5 1 0
vt 0.66666662693024 0 0
vt 0.66666662693024 1 0
vt 0.25 0 0
vt 0.25 1 0
vt 0.75 0 0
vt 0.75 1 0
# 10 texture coordinates

o Extrude.1
usemtl Mat
f 258/260/4 314/259/4 313/4/4 257/1/4
f 259/262/2 315/261/2 314/259/2 258/260/2
f 260/264/1 316/263/1 315/261/1 259/262/1
f 257/257/3 313/258/3 316/263/3 260/264/3
f 262/260/4 318/259/4 317/4/4 261/1/4
f 263/262/2 319/261/2 318/259/2 262/260/2
f 264/264/1 320/263/1 319/261/1 263/262/1
f 261/257/3 317/258/3 320/263/3 264/264/3
f 266/266/4 322/265/4 321/4/4 265/1/4
f 267/262/2 323/261/2 322/265/2 266/266/2
f 268/268/1 324/267/1 323/261/1 267/262/1
f 265/257/3 321/258/3 324/267/3 268/268/3
f 270/260/4 326/259/4 325/4/4 269/1/4
f 271/262/2 327/261/2 326/259/2 270/260/2
f 272/264/1 328/263/1 327/261/1 271/262/1
f 269/257/3 325/258/3 328/263/3 272/264/3
f 274/266/4 330/265/4 329/4/4 273/1/4
f 275/262/2 331/261/2 330/265/2 274/266/2
f 276/268/1 332/267/1 331/261/1 275/262/1
f 273/257/3 329/258/3 332/267/3 276/268/3
f 278/266/4 334/265/4 333/4/4 277/1/4
f 279/262/2 335/261/2 334/265/2 278/266/2
f 280/268/1 336/267/1 335/261/1 279/262/1
f 277/257/3 333/258/3 336/267/3 280/268/3
f 282/260/4 338/259/4 337/4/4 281/1/4
f 283/262/2 339/261/2 338/259/2 282/260/2
f 284/264/1 340/263/1 339/261/1 283/262/1
f 281/257/3 337/258/3 340/263/3 284/264/3
f 286/266/4 342/265/4 341/4/4 285/1/4
f 287/262/2 343/261/2 342/265/2 286/266/2
f 288/268/1 344/267/1 343/261/1 287/262/1
f 285/257/3 341/258/3 344/267/3 288/268/3
f 290/266/4 346/265/4 345/4/4 289/1/4
f 291/262/2 347/261/2 346/265/2 290/266/2
f 292/268/1 348/267/1 347/261/1 291/262/1
f 289/257/3 345/258/3 348/267/3 292/268/3
f 294/266/4 350/265/4 349/4/4 293/1/4
f 295/262/2 351/261/2 350/265/2 294/266/2
f 296/268/1 352/267/1 351/261/1 295/262/1
f 293/257/3 349/258/3 352/267/3 296/268/3
f 298/260/4 354/259/4 353/4/4 297/1/4
f 299/262/2 355/261/2 354/259/2 298/260/2
f 300/264/1 356/263/1 355/261/1 299/262/1
f 297/257/3 353/258/3 356/263/3 300/264/3
f 302/266/4 358/265/4 357/4/4 301/1/4
f 303/262/2 359/261/2 358/265/2 302/266/2
f 304/268/1 360/267/1 359/261/1 303/262/1
f 301/257/3 357/258/3 360/267/3 304/268/3
f 306/266/4 362/265/4 361/4/4 305/1/4
f 307/262/2 363/261/2 362/265/2 306/266/2
f 308/268/1 364/267/1 363/261/1 307/262/1
f 305/257/3 361/258/3 364/267/3 308/268/3
f 310/260/4 366/259/4 365/4/4 309/1/4
f 311/262/2 367/261/2 366/259/2 310/260/2
f 312/264/1 368/263/1 367/261/1 311/262/1
f 309/257/3 365/258/3 368/263/3 312/264/3

